<svg xmlns="http://www.w3.org/2000/svg" xmlns:xlink="http://www.w3.org/1999/xlink" id="processonSvg1000" viewBox="145.0 157.13710378067395 612.0 314.8628962193261" width="612.0" height="314.8628962193261"><defs id="ProcessOnDefs1001"/><g id="ProcessOnG1002"><path id="ProcessOnPath1003" d="M145.0 157.13710378067395H757.0V472.00000000000006H145.0V157.13710378067395Z" fill="#ffffff"/><g id="ProcessOnG1004"><g id="ProcessOnG1005" transform="matrix(1.0,0.0,0.0,1.0,253.2542285532611,382.0)" opacity="1.0"><path id="ProcessOnPath1006" d="M0.0 0.0L483.4445055188196 0.0L483.4445055188196 70.0L0.0 70.0Z" stroke="#323232" stroke-width="2.0" stroke-dasharray="none" opacity="1.0" fill="#99ff99"/></g><g id="ProcessOnG1007" transform="matrix(1.0,0.0,0.0,1.0,252.9529626253418,270.0)" opacity="1.0"><path id="ProcessOnPath1008" d="M0.0 0.0L484.0470373746582 0.0L484.0470373746582 111.99999999999994L0.0 111.99999999999994Z" stroke="#323232" stroke-width="2.0" stroke-dasharray="none" opacity="1.0" fill="#ffcce6"/></g><g id="ProcessOnG1009" transform="matrix(1.0,0.0,0.0,1.0,165.0,270.0)" opacity="1.0"><path id="ProcessOnPath1010" d="M0.0 0.0L87.95296262534185 0.0L87.95296262534185 111.99999999999994L0.0 111.99999999999994Z" stroke="#323232" stroke-width="2.0" stroke-dasharray="none" opacity="1.0" fill="#33ff99"/><g id="ProcessOnG1011" transform="matrix(1.0,0.0,0.0,1.0,10.0,39.74999999999997)"><text id="ProcessOnText1012" fill="#000000" font-size="13" x="32.97648131267093" y="13.325" font-family="微软雅黑" font-weight="normal" font-style="normal" text-decoration="none" family="微软雅黑" text-anchor="middle" size="13">xnote</text><text id="ProcessOnText1013" fill="#000000" font-size="13" x="32.97648131267093" y="29.575" font-family="微软雅黑" font-weight="normal" font-style="normal" text-decoration="none" family="微软雅黑" text-anchor="middle" size="13">core</text></g></g><g id="ProcessOnG1014" transform="matrix(1.0,0.0,0.0,1.0,165.0,381.99999999999994)" opacity="1.0"><path id="ProcessOnPath1015" d="M0.0 0.0L87.95296262534185 0.0L87.95296262534185 70.00000000000011L0.0 70.00000000000011Z" stroke="#323232" stroke-width="2.0" stroke-dasharray="none" opacity="1.0" fill="#33ff99"/><g id="ProcessOnG1016" transform="matrix(1.0,0.0,0.0,1.0,10.0,26.875000000000057)"><text id="ProcessOnText1017" fill="#000000" font-size="13" x="32.97648131267093" y="13.325" font-family="微软雅黑" font-weight="normal" font-style="normal" text-decoration="none" family="微软雅黑" text-anchor="middle" size="13">Platform</text></g></g><g id="ProcessOnG1018" transform="matrix(1.0,0.0,0.0,1.0,285.8148749764275,294.88061689779613)" opacity="1.0"><path id="ProcessOnPath1019" d="M0.0 0.0L82.78592917203093 0.0L82.78592917203093 32.11938310220387L0.0 32.11938310220387Z" stroke="#323232" stroke-width="2.0" stroke-dasharray="none" opacity="1.0" fill="#ffff66"/><g id="ProcessOnG1020" transform="matrix(1.0,0.0,0.0,1.0,10.0,7.934691551101935)"><text id="ProcessOnText1021" fill="#000000" font-size="13" x="30.392964586015466" y="13.325" font-family="微软雅黑" font-weight="normal" font-style="normal" text-decoration="none" family="微软雅黑" text-anchor="middle" size="13">xconfig</text></g></g><g id="ProcessOnG1022" transform="matrix(1.0,0.0,0.0,1.0,384.7479996704979,293.96663406355884)" opacity="1.0"><path id="ProcessOnPath1023" d="M0.0 0.0L99.25200032950204 0.0L99.25200032950204 33.947348770678445L0.0 33.947348770678445Z" stroke="#323232" stroke-width="2.0" stroke-dasharray="none" opacity="1.0" fill="#ffff66"/><g id="ProcessOnG1024" transform="matrix(1.0,0.0,0.0,1.0,10.0,8.848674385339223)"><text id="ProcessOnText1025" fill="#000000" font-size="13" x="38.62600016475102" y="13.325" font-family="微软雅黑" font-weight="normal" font-style="normal" text-decoration="none" family="微软雅黑" text-anchor="middle" size="13">xutils</text></g></g><g id="ProcessOnG1026" transform="matrix(1.0,0.0,0.0,1.0,502.56881721235357,293.96663406355873)" opacity="1.0"><path id="ProcessOnPath1027" d="M0.0 0.0L89.3965428605726 0.0L89.3965428605726 33.94734877067867L0.0 33.94734877067867Z" stroke="#323232" stroke-width="2.0" stroke-dasharray="none" opacity="1.0" fill="#ffff66"/><g id="ProcessOnG1028" transform="matrix(1.0,0.0,0.0,1.0,10.0,8.848674385339336)"><text id="ProcessOnText1029" fill="#000000" font-size="13" x="33.6982714302863" y="13.325" font-family="微软雅黑" font-weight="normal" font-style="normal" text-decoration="none" family="微软雅黑" text-anchor="middle" size="13">xmanager</text></g></g><g id="ProcessOnG1030" transform="matrix(1.0,0.0,0.0,1.0,610.0000000000001,293.96663406355873)" opacity="1.0"><path id="ProcessOnPath1031" d="M0.0 0.0L78.41567912488597 0.0L78.41567912488597 33.94734877067867L0.0 33.94734877067867Z" stroke="#323232" stroke-width="2.0" stroke-dasharray="none" opacity="1.0" fill="#ffff66"/><g id="ProcessOnG1032" transform="matrix(1.0,0.0,0.0,1.0,10.0,8.848674385339336)"><text id="ProcessOnText1033" fill="#000000" font-size="13" x="28.207839562442985" y="13.325" font-family="微软雅黑" font-weight="normal" font-style="normal" text-decoration="none" family="微软雅黑" text-anchor="middle" size="13">xauth</text></g></g><g id="ProcessOnG1034" transform="matrix(1.0,0.0,0.0,1.0,165.0,177.13710378067395)" opacity="1.0"><path id="ProcessOnPath1035" d="M0.0 0.0L87.95296262534185 0.0L87.95296262534185 92.86289621932605L0.0 92.86289621932605Z" stroke="#323232" stroke-width="2.0" stroke-dasharray="none" opacity="1.0" fill="#33ff99"/><g id="ProcessOnG1036" transform="matrix(1.0,0.0,0.0,1.0,10.0,30.181448109663023)"><text id="ProcessOnText1037" fill="#000000" font-size="13" x="32.97648131267093" y="13.325" font-family="微软雅黑" font-weight="normal" font-style="normal" text-decoration="none" family="微软雅黑" text-anchor="middle" size="13">xnote </text><text id="ProcessOnText1038" fill="#000000" font-size="13" x="32.97648131267093" y="29.575" font-family="微软雅黑" font-weight="normal" font-style="normal" text-decoration="none" family="微软雅黑" text-anchor="middle" size="13">handlers</text></g></g><g id="ProcessOnG1039" transform="matrix(1.0,0.0,0.0,1.0,330.56881721235357,393.66214952479675)" opacity="1.0"><path id="ProcessOnPath1040" d="M0.0 0.0L82.03463992707384 0.0L82.03463992707384 52.67570095040651L0.0 52.67570095040651Z" stroke="#323232" stroke-width="2.0" stroke-dasharray="none" opacity="1.0" fill="#ff99cc"/><g id="ProcessOnG1041" transform="matrix(1.0,0.0,0.0,1.0,10.0,18.212850475203254)"><text id="ProcessOnText1042" fill="#000000" font-size="13" x="30.01731996353692" y="13.325" font-family="微软雅黑" font-weight="normal" font-style="normal" text-decoration="none" family="微软雅黑" text-anchor="middle" size="13">Python</text></g></g><g id="ProcessOnG1043" transform="matrix(1.0,0.0,0.0,1.0,252.95296262534185,177.52286910761347)" opacity="1.0"><path id="ProcessOnPath1044" d="M0.0 0.0L484.0470373746581 0.0L484.0470373746581 92.091365565447L0.0 92.091365565447Z" stroke="#323232" stroke-width="2.0" stroke-dasharray="none" opacity="1.0" fill="#ff6666"/></g><g id="ProcessOnG1045" transform="matrix(1.0,0.0,0.0,1.0,285.8148749764275,206.5335057484392)" opacity="1.0"><path id="ProcessOnPath1046" d="M0.0 0.0L82.10851810525435 0.0L82.10851810525435 34.07009228379551L0.0 34.07009228379551Z" stroke="#323232" stroke-width="2.0" stroke-dasharray="none" opacity="1.0" fill="#ffff66"/><g id="ProcessOnG1047" transform="matrix(1.0,0.0,0.0,1.0,10.0,8.910046141897755)"><text id="ProcessOnText1048" fill="#000000" font-size="13" x="30.054259052627174" y="13.325" font-family="微软雅黑" font-weight="normal" font-style="normal" text-decoration="none" family="微软雅黑" text-anchor="middle" size="13">资料管理</text></g></g><g id="ProcessOnG1049" transform="matrix(1.0,0.0,0.0,1.0,387.06194679903007,206.5335057484392)" opacity="1.0"><path id="ProcessOnPath1050" d="M0.0 0.0L82.10851810525435 0.0L82.10851810525435 34.07009228379551L0.0 34.07009228379551Z" stroke="#323232" stroke-width="2.0" stroke-dasharray="none" opacity="1.0" fill="#ffff66"/><g id="ProcessOnG1051" transform="matrix(1.0,0.0,0.0,1.0,10.0,8.910046141897755)"><text id="ProcessOnText1052" fill="#000000" font-size="13" x="30.054259052627174" y="13.325" font-family="微软雅黑" font-weight="normal" font-style="normal" text-decoration="none" family="微软雅黑" text-anchor="middle" size="13">搜索</text></g></g><g id="ProcessOnG1053" transform="matrix(1.0,0.0,0.0,1.0,547.9653600729262,393.66214952479675)" opacity="1.0"><path id="ProcessOnPath1054" d="M0.0 0.0L82.03463992707384 0.0L82.03463992707384 52.67570095040651L0.0 52.67570095040651Z" stroke="#323232" stroke-width="2.0" stroke-dasharray="none" opacity="1.0" fill="#ff99cc"/><g id="ProcessOnG1055" transform="matrix(1.0,0.0,0.0,1.0,10.0,18.212850475203254)"><text id="ProcessOnText1056" fill="#000000" font-size="13" x="30.01731996353692" y="13.325" font-family="微软雅黑" font-weight="normal" font-style="normal" text-decoration="none" family="微软雅黑" text-anchor="middle" size="13">web.py</text></g></g><g id="ProcessOnG1057" transform="matrix(1.0,0.0,0.0,1.0,502.56881721235357,336.96663406355873)" opacity="1.0"><path id="ProcessOnPath1058" d="M0.0 0.0L89.3965428605726 0.0L89.3965428605726 33.94734877067867L0.0 33.94734877067867Z" stroke="#323232" stroke-width="2.0" stroke-dasharray="none" opacity="1.0" fill="#ffff66"/><g id="ProcessOnG1059" transform="matrix(1.0,0.0,0.0,1.0,10.0,8.848674385339336)"><text id="ProcessOnText1060" fill="#000000" font-size="13" x="33.6982714302863" y="13.325" font-family="微软雅黑" font-weight="normal" font-style="normal" text-decoration="none" family="微软雅黑" text-anchor="middle" size="13">xtables</text></g></g><g id="ProcessOnG1061" transform="matrix(1.0,0.0,0.0,1.0,285.8148749764275,336.96663406355873)" opacity="1.0"><path id="ProcessOnPath1062" d="M0.0 0.0L82.78592917203093 0.0L82.78592917203093 33.94734877067867L0.0 33.94734877067867Z" stroke="#323232" stroke-width="2.0" stroke-dasharray="none" opacity="1.0" fill="#ffff66"/><g id="ProcessOnG1063" transform="matrix(1.0,0.0,0.0,1.0,10.0,8.848674385339336)"><text id="ProcessOnText1064" fill="#000000" font-size="13" x="30.392964586015466" y="13.325" font-family="微软雅黑" font-weight="normal" font-style="normal" text-decoration="none" family="微软雅黑" text-anchor="middle" size="13">xtables</text></g></g><g id="ProcessOnG1065" transform="matrix(1.0,0.0,0.0,1.0,384.7479996704979,336.96663406355873)" opacity="1.0"><path id="ProcessOnPath1066" d="M0.0 0.0L99.2520003295021 0.0L99.2520003295021 33.94734877067867L0.0 33.94734877067867Z" stroke="#323232" stroke-width="2.0" stroke-dasharray="none" opacity="1.0" fill="#ffff66"/><g id="ProcessOnG1067" transform="matrix(1.0,0.0,0.0,1.0,10.0,8.848674385339336)"><text id="ProcessOnText1068" fill="#000000" font-size="13" x="38.62600016475105" y="13.325" font-family="微软雅黑" font-weight="normal" font-style="normal" text-decoration="none" family="微软雅黑" text-anchor="middle" size="13">xtemplate</text></g></g><g id="ProcessOnG1069" transform="matrix(1.0,0.0,0.0,1.0,610.0,336.96663406355873)" opacity="1.0"><path id="ProcessOnPath1070" d="M0.0 0.0L78.41567912488597 0.0L78.41567912488597 33.94734877067867L0.0 33.94734877067867Z" stroke="#323232" stroke-width="2.0" stroke-dasharray="none" opacity="1.0" fill="#ffff66"/><g id="ProcessOnG1071" transform="matrix(1.0,0.0,0.0,1.0,10.0,8.848674385339336)"><text id="ProcessOnText1072" fill="#000000" font-size="13" x="28.207839562442985" y="13.325" font-family="微软雅黑" font-weight="normal" font-style="normal" text-decoration="none" family="微软雅黑" text-anchor="middle" size="13">app</text></g></g><g id="ProcessOnG1073" transform="matrix(1.0,0.0,0.0,1.0,499.06194679903007,206.5335057484392)" opacity="1.0"><path id="ProcessOnPath1074" d="M0.0 0.0L82.10851810525435 0.0L82.10851810525435 34.07009228379551L0.0 34.07009228379551Z" stroke="#323232" stroke-width="2.0" stroke-dasharray="none" opacity="1.0" fill="#ffff66"/><g id="ProcessOnG1075" transform="matrix(1.0,0.0,0.0,1.0,10.0,8.910046141897755)"><text id="ProcessOnText1076" fill="#000000" font-size="13" x="30.054259052627174" y="13.325" font-family="微软雅黑" font-weight="normal" font-style="normal" text-decoration="none" family="微软雅黑" text-anchor="middle" size="13">系统管理</text></g></g><g id="ProcessOnG1077" transform="matrix(1.0,0.0,0.0,1.0,608.1535805098158,206.5335057484392)" opacity="1.0"><path id="ProcessOnPath1078" d="M0.0 0.0L82.10851810525435 0.0L82.10851810525435 34.07009228379551L0.0 34.07009228379551Z" stroke="#323232" stroke-width="2.0" stroke-dasharray="none" opacity="1.0" fill="#ffff66"/><g id="ProcessOnG1079" transform="matrix(1.0,0.0,0.0,1.0,10.0,8.910046141897755)"><text id="ProcessOnText1080" fill="#000000" font-size="13" x="30.054259052627174" y="13.325" font-family="微软雅黑" font-weight="normal" font-style="normal" text-decoration="none" family="微软雅黑" text-anchor="middle" size="13">...</text></g></g></g></g></svg>