<?xml version="1.0" standalone="no"?><!DOCTYPE svg PUBLIC "-//W3C//DTD SVG 1.1//EN" "http://www.w3.org/Graphics/SVG/1.1/DTD/svg11.dtd"><svg t="1573498951893" class="icon" viewBox="0 0 1024 1024" version="1.1" xmlns="http://www.w3.org/2000/svg" p-id="22933" xmlns:xlink="http://www.w3.org/1999/xlink" width="64" height="64"><defs><style type="text/css"></style></defs><path d="M512 426.666667c-47.146667 0-85.333333 38.186667-85.333333 85.333333s38.186667 85.333333 85.333333 85.333333 85.333333-38.186667 85.333333-85.333333-38.186667-85.333333-85.333333-85.333333zM810.666667 128H213.333333c-47.146667 0-85.333333 38.186667-85.333333 85.333333v597.333334c0 47.146667 38.186667 85.333333 85.333333 85.333333h597.333334c47.146667 0 85.333333-38.186667 85.333333-85.333333V213.333333c0-47.146667-38.186667-85.333333-85.333333-85.333333z m-74.666667 384c0 9.813333-0.853333 19.626667-2.133333 29.226667l63.146666 49.493333c5.546667 4.48 7.253333 12.586667 3.413334 18.986667l-59.733334 103.466666c-3.626667 6.4-11.52 8.96-18.346666 6.4l-74.453334-30.08c-15.36 11.946667-32.213333 21.76-50.56 29.44l-11.093333 79.146667c-0.853333 7.04-7.04 12.586667-14.506667 12.586667h-119.466666a14.933333 14.933333 0 0 1-14.72-12.586667l-11.093334-79.146667c-18.133333-7.466667-34.986667-17.493333-50.56-29.44l-74.24 29.866667c-6.826667 2.56-14.506667 0-18.346666-6.4l-59.733334-103.466667c-3.84-6.4-2.133333-14.506667 3.413334-18.986666l63.146666-49.28c-1.28-9.6-2.133333-19.2-2.133333-29.226667 0-9.813333 0.853333-19.626667 2.133333-29.226667l-63.146666-49.28a14.741333 14.741333 0 0 1-3.413334-18.986666l59.733334-103.466667c3.84-6.4 11.52-8.96 18.346666-6.4l74.24 29.866667c15.36-11.733333 32.213333-21.76 50.56-29.44l11.093334-79.146667a14.933333 14.933333 0 0 1 14.72-12.586667h119.466666a14.933333 14.933333 0 0 1 14.72 12.586667l11.093334 79.146667c18.133333 7.466667 34.986667 17.493333 50.56 29.44l74.24-29.866667c6.826667-2.56 14.506667 0 18.346666 6.4l59.733334 103.466667c3.84 6.4 2.133333 14.506667-3.413334 18.986666l-63.146666 49.493334c1.28 9.386667 2.133333 19.2 2.133333 29.013333z" fill="" p-id="22934"></path></svg>