<?xml version="1.0" standalone="no"?><!DOCTYPE svg PUBLIC "-//W3C//DTD SVG 1.1//EN" "http://www.w3.org/Graphics/SVG/1.1/DTD/svg11.dtd"><svg t="1573497862385" class="icon" viewBox="0 0 1024 1024" version="1.1" xmlns="http://www.w3.org/2000/svg" p-id="2883" xmlns:xlink="http://www.w3.org/1999/xlink" width="64" height="64"><defs><style type="text/css"></style></defs><path d="M355.400383 504.697687c-3.620457-8.68787-13.598716-12.794397-22.286586-9.17394L121.278157 583.816652c-13.857613 5.77554-14.017248 25.350364-0.255827 31.351032l211.390501 92.178399c8.627495 3.761674 18.671245-0.182149 22.432918-8.809643 3.761674-8.627495-0.182149-18.671245-8.809643-22.432918L171.282015 599.899956l174.944428-72.916706C354.914312 523.362792 359.02084 513.384533 355.400383 504.697687z" p-id="2884"></path><path d="M921.386948 583.816652 709.551308 495.523747c-8.68787-3.620457-18.665105 0.48607-22.286586 9.17394-3.620457 8.68787 0.48607 18.665105 9.17394 22.286586l174.944428 72.916706-174.755116 76.202543c-8.627495 3.761674-12.571317 13.805424-8.809643 22.432918 3.761674 8.627495 13.805424 12.571317 22.432918 8.809643l211.390501-92.178399C935.403173 609.167017 935.24456 589.592192 921.386948 583.816652z" p-id="2885"></path><path d="M571.71401 367.050724c-9.051143-2.579755-18.479887 2.666736-21.059642 11.718903l-119.67566 419.944398c-2.579755 9.051143 2.666736 18.48091 11.718903 21.059642s18.479887-2.666736 21.059642-11.718903l119.67566-419.944398C586.012667 379.059222 580.766177 369.630479 571.71401 367.050724z" p-id="2886"></path><path d="M0.021489 0l0 1022.506996 1022.506996 0L1022.528486 204.501604l0-34.08326L1022.528486 0 0.021489 0zM34.104749 988.423737 34.104749 204.501604l17.042141 0 937.298336 0 0 783.922133L34.104749 988.423737zM988.445226 170.417321 51.14689 170.417321 34.104749 170.417321 34.104749 34.08326l954.339454 0L988.444203 170.417321z" p-id="2887"></path></svg>