<?xml version="1.0" standalone="no"?><!DOCTYPE svg PUBLIC "-//W3C//DTD SVG 1.1//EN" "http://www.w3.org/Graphics/SVG/1.1/DTD/svg11.dtd"><svg t="1573497830601" class="icon" viewBox="0 0 1024 1024" version="1.1" xmlns="http://www.w3.org/2000/svg" p-id="2647" xmlns:xlink="http://www.w3.org/1999/xlink" width="64" height="64"><defs><style type="text/css"></style></defs><path d="M694.857143 475.428571q0-105.691429-75.117714-180.882286t-180.882286-75.117714-180.882286 75.117714-75.117714 180.882286 75.117714 180.882286 180.882286 75.117714 180.882286-75.117714 75.117714-180.882286zM987.428571 950.857143q0 29.696-21.723429 51.419429t-51.419429 21.723429q-30.866286 0-51.419429-21.723429l-196.022857-195.437714q-102.253714 70.875429-227.986286 70.875429-81.700571 0-156.306286-31.744t-128.585143-85.723429-85.723429-128.585143-31.744-156.306286 31.744-156.306286 85.723429-128.585143 128.585143-85.723429 156.306286-31.744 156.306286 31.744 128.585143 85.723429 85.723429 128.585143 31.744 156.306286q0 125.732571-70.875429 227.986286l196.022857 196.022857q21.138286 21.138286 21.138286 51.419429z" p-id="2648"></path></svg>