<?xml version="1.0" standalone="no"?><!DOCTYPE svg PUBLIC "-//W3C//DTD SVG 1.1//EN" "http://www.w3.org/Graphics/SVG/1.1/DTD/svg11.dtd"><svg t="1573498303747" class="icon" viewBox="0 0 1024 1024" version="1.1" xmlns="http://www.w3.org/2000/svg" p-id="4922" xmlns:xlink="http://www.w3.org/1999/xlink" width="64" height="64"><defs><style type="text/css"></style></defs><path d="M287.744 491.52c-1.024 7.168-1.024 13.312-1.024 20.48h-61.44c0-7.168 0-13.312 1.024-20.48h61.44z m239.616-122.88h-30.72c-8.192 0-15.36 7.168-15.36 15.36v134.144c0 4.096 2.048 8.192 4.096 11.264l86.016 86.016c6.144 6.144 15.36 6.144 21.504 0L614.4 593.92c6.144-6.144 6.144-15.36 0-21.504l-71.68-72.704V384c0-8.192-7.168-15.36-15.36-15.36zM512 225.28c-151.552 0-275.456 117.76-285.696 266.24 0 3.072-1.024 7.168-1.024 10.24h-46.08c-13.312 0-20.48 15.36-12.288 24.576l76.8 93.184c6.144 7.168 17.408 7.168 23.552 0l76.8-93.184c8.192-10.24 1.024-24.576-12.288-24.576H286.72v-10.24c10.24-114.688 107.52-204.8 224.256-204.8 133.12 0 238.592 115.712 224.256 250.88-10.24 97.28-102.4 189.44-200.704 198.656-72.704 7.168-141.312-19.456-189.44-71.68-6.144-7.168-14.336-11.264-22.528-1.024l-24.576 29.696c-5.12 6.144-1.024 10.24 4.096 15.36 55.296 58.368 131.072 91.136 212.992 90.112 147.456-2.048 271.36-118.784 281.6-266.24C809.984 365.568 676.864 225.28 512 225.28z" p-id="4923"></path></svg>